HIERARCHY
ROOT Hips
{
  OFFSET -31.5692 30.0904 122.763
  CHANNELS 6 Xposition Yposition Zposition Zrotation Xrotation Yrotation
  JOINT LeftUpLeg
  {
    OFFSET 8.64259 1.95398 -2.38835
    CHANNELS 3 Zrotation Xrotation Yrotation
    JOINT LeftLeg
    {
      OFFSET 43.7702 0 0
      CHANNELS 3 Zrotation Xrotation Yrotation
      JOINT LeftFoot
      {
        OFFSET 40.6238 0 0
        CHANNELS 3 Zrotation Xrotation Yrotation
        JOINT LeftToeBase
        {
          OFFSET 12.7242 0 0
          CHANNELS 3 Zrotation Xrotation Yrotation
          End Site
          {
            OFFSET 0 0 0
          }
        }
      }
    }
  }
  JOINT RightUpLeg
  {
    OFFSET -8.2249 1.95398 -2.59336
    CHANNELS 3 Zrotation Xrotation Yrotation
    JOINT RightLeg
    {
      OFFSET 43.5653 0 0
      CHANNELS 3 Zrotation Xrotation Yrotation
      JOINT RightFoot
      {
        OFFSET 40.6238 0 0
        CHANNELS 3 Zrotation Xrotation Yrotation
        JOINT RightToeBase
        {
          OFFSET 12.7242 0 0
          CHANNELS 3 Zrotation Xrotation Yrotation
          End Site
          {
            OFFSET 0 0 0
          }
        }
      }
    }
  }
  JOINT Spine
  {
    OFFSET 0.165834 0.87714 6.61349
    CHANNELS 3 Zrotation Xrotation Yrotation
    JOINT Spine1
    {
      OFFSET 7.38963 1.71661e-005 0
      CHANNELS 3 Zrotation Xrotation Yrotation
      JOINT Spine2
      {
        OFFSET 11.9445 1.14441e-005 0
        CHANNELS 3 Zrotation Xrotation Yrotation
        JOINT Spine3
        {
          OFFSET 14.7254 4.19617e-005 0
          CHANNELS 3 Zrotation Xrotation Yrotation
          JOINT Spine4
          {
            OFFSET 10.9679 0 0
            CHANNELS 3 Zrotation Xrotation Yrotation
            JOINT RightShoulder
            {
              OFFSET 2.46616 -1.6653 3.69651
              CHANNELS 3 Zrotation Xrotation Yrotation
              JOINT RightArm
              {
                OFFSET 13.0012 0 0
                CHANNELS 3 Zrotation Xrotation Yrotation
                JOINT RightForeArm
                {
                  OFFSET 28.7848 1.62311e-005 0
                  CHANNELS 3 Zrotation Xrotation Yrotation
                  JOINT RightHand
                  {
                    OFFSET 26.5688 1.62095e-005 0
                    CHANNELS 3 Zrotation Xrotation Yrotation
                    End Site
                    {
                      OFFSET 0 0 0
                    }
                  }
                }
              }
            }
            JOINT LeftShoulder
            {
              OFFSET 2.38034 -1.29275 -3.7523
              CHANNELS 3 Zrotation Xrotation Yrotation
              JOINT LeftArm
              {
                OFFSET 16.3182 6.07031e-005 0
                CHANNELS 3 Zrotation Xrotation Yrotation
                JOINT LeftForeArm
                {
                  OFFSET 27.0901 0 0
                  CHANNELS 3 Zrotation Xrotation Yrotation
                  JOINT LeftHand
                  {
                    OFFSET 24.5451 1.51738e-005 0
                    CHANNELS 3 Zrotation Xrotation Yrotation
                    End Site
                    {
                      OFFSET 0 0 0
                    }
                  }
                }
              }
            }
            JOINT Neck
            {
              OFFSET 5.0226 -0.0266342 0
              CHANNELS 3 Zrotation Xrotation Yrotation
              JOINT Head
              {
                OFFSET 6.69364 2.86102e-005 0
                CHANNELS 3 Zrotation Xrotation Yrotation
                End Site
                {
                  OFFSET 0 0 0
                }
              }
            }
          }
        }
      }
    }
  }
}
MOTION
Frames:	17
Frame Time:	0.0416667
37.0117 9.26643 39.4028 5.52049 -11.6949 0.961539 -170.797 -7.34031 97.7036 -21.5479 16.4774 2.9244 84.5497 17.1614 -1.53631 20.0506 -6.61891 5.38617 167.218 -10.4321 85.3388 -20.6277 -4.57827 1.61606 79.9385 -12.9535 -0.501523 41.8144 -5.94721 -0.241704 0.16856 5.97208 -90.2541 14.93 0.207343 -0.541589 3.25891 0.183306 -0.550195 -19.2757 0.360518 -0.454253 0.736962 0.360522 -0.454243 94.0244 -14.2411 -104.225 22.4964 0.659427 25.0726 -52.1684 2.55318 -98.4996 -84.316 -6.67743 -1.68987 -87.5119 -29.4738 77.9273 -3.53513 5.52756 12.9073 42.3693 2.30693 -78.2069 73.2821 -10.377 -11.5006 64.1891 -4.94211 -3.26963 -23.4482 -2.25706 1.1609 
36.9886 9.23492 39.4079 5.60104 -11.7684 0.886295 -170.457 -7.23395 97.865 -21.8652 16.8652 2.70025 84.1986 16.9701 -1.29001 19.8325 -6.67743 5.24279 167.2 -10.4698 85.2268 -20.7999 -3.92715 1.58757 80.3801 -12.7983 0.701857 41.5691 -5.80441 -0.726995 0.16122 5.9829 -90.2561 14.9083 0.191876 -0.543216 3.23722 0.167776 -0.551158 -19.2973 0.346264 -0.460437 0.715301 0.346262 -0.46045 94.0788 -14.0664 -104.162 22.5963 0.461702 25.0417 -54.8545 2.90765 -98.6602 -82.9022 -8.22831 0.10838 -87.5706 -29.7301 77.8859 -3.21196 5.63022 12.7993 42.1965 2.44634 -78.3473 72.578 -10.2308 -11.5503 61.5598 -5.08656 -4.14129 -19.8746 -2.15839 2.96155 
36.9708 9.22868 39.3804 5.51245 -11.7779 0.804402 -170.317 -7.39037 97.9426 -21.4649 16.9965 2.54447 84.8046 17.2907 -1.7856 19.107 -7.28976 5.6765 167.173 -10.2893 85.1506 -21.1215 -4.14179 1.57005 80.3565 -12.7855 0.365355 41.6972 -5.87319 -0.568221 0.181699 6.00139 -90.2418 14.8714 0.239594 -0.521389 3.20039 0.216414 -0.531437 -19.3343 0.385213 -0.425292 0.678314 0.385211 -0.425279 94.2184 -14.0945 -103.778 22.6555 0.291553 24.7377 -57.247 3.08407 -98.677 -81.4183 -9.80866 2.06462 -87.7091 -29.368 77.5147 -3.13805 5.34228 13.0388 41.8801 2.49894 -78.1982 72.9603 -10.4345 -11.7263 60.6399 -5.42222 -4.96914 -18.3862 -2.10358 4.32059 
36.99 9.25907 39.3863 5.64751 -11.7627 0.780271 -170.453 -7.30932 97.8417 -21.5396 16.9218 2.6028 84.6983 17.2209 -1.79694 19.166 -7.33037 5.83537 167.116 -10.2487 85.0782 -21.1703 -3.88708 1.61176 80.4765 -12.7244 0.753576 41.6838 -5.88274 -0.323851 0.152489 5.99194 -90.2592 14.8902 0.173126 -0.546596 3.21914 0.148898 -0.553676 -19.3154 0.329388 -0.469305 0.697259 0.32939 -0.469284 94.1553 -13.8915 -104.04 22.657 0.120993 24.8122 -58.3463 2.96003 -98.5324 -80.6756 -10.2498 2.66422 -87.6451 -29.9959 77.8179 -2.74763 5.69386 12.9699 41.7097 2.44091 -78.2971 72.941 -10.2749 -11.5832 60.5957 -5.22431 -4.78679 -18.5311 -2.03922 4.2026 
36.9723 9.24006 39.39 5.66577 -11.7662 0.768616 -170.354 -7.3504 97.9029 -21.4955 17.1435 2.55518 84.7261 17.2528 -1.73179 19.2629 -7.30611 5.90263 167.161 -10.256 85.1069 -21.1809 -3.78693 1.568 80.4893 -12.7095 0.858637 41.8278 -5.91399 -0.867874 0.141246 5.9859 -90.2629 14.9022 0.149047 -0.550449 3.2311 0.124673 -0.556486 -19.3034 0.307585 -0.480202 0.709239 0.307585 -0.480222 94.1316 -13.9018 -104.098 22.6016 -0.0750214 24.8723 -59.0681 3.09837 -98.5735 -79.1377 -10.3148 2.98358 -87.4418 -30.1071 78.241 -2.91677 6.05638 12.806 42.1736 2.98276 -78.1812 72.4278 -10.4195 -11.8406 60.7847 -5.07095 -4.50326 -18.8842 -2.03605 3.79307 
36.9626 9.23209 39.3882 5.7099 -11.7104 0.793314 -170.425 -7.22644 97.9012 -21.5967 17.164 2.6022 84.6628 17.1877 -1.78355 19.3065 -7.15166 5.62422 167.186 -10.2466 85.1754 -21.1413 -3.88257 1.58108 80.3848 -12.7477 0.495436 41.707 -5.89488 -0.298618 0.120304 5.96673 -90.3006 14.9402 0.0887766 -0.617628 3.26907 0.0615104 -0.620936 -19.2651 0.27029 -0.562404 0.74756 0.270287 -0.56239 94.0844 -13.5379 -104.397 22.6296 -0.0425182 25.0324 -56.3407 3.08157 -98.6348 -81.7076 -8.70156 0.740221 -87.7133 -30.6227 77.8645 -2.34985 5.92389 13.2859 41.5262 2.53444 -78.3746 72.6391 -10.2965 -11.737 60.9347 -4.63707 -4.00365 -19.1506 -1.94289 3.47212 
36.9421 9.23516 39.3768 5.65233 -11.7646 0.739204 -170.393 -7.35178 97.8743 -21.473 17.2015 2.56695 84.5827 17.2401 -1.55948 19.2804 -7.02834 5.32655 167.179 -10.2338 85.1271 -21.2317 -3.82348 1.55662 80.4496 -12.7529 0.592413 41.8482 -5.95194 -0.410329 0.119028 5.9515 -90.3275 14.9707 0.0727887 -0.669134 3.29958 0.0432768 -0.671678 -19.2344 0.270522 -0.616311 0.778288 0.270518 -0.616321 94.03 -13.2321 -104.693 22.702 -0.226045 25.305 -58.873 3.03329 -98.5043 -80.9204 -10.8186 3.29098 -87.7766 -31.6157 78.0169 -1.4484 6.1312 13.1911 41.5342 2.88102 -78.317 72.2933 -10.3131 -11.8579 60.918 -4.1135 -3.33055 -19.2785 -1.84079 2.82348 
36.9536 9.23022 39.3757 5.83852 -11.7631 0.708332 -170.448 -7.33072 97.8383 -21.4818 17.2664 2.5856 84.6067 17.2403 -1.62639 19.2231 -7.10416 5.42019 167.075 -10.2806 85.0304 -21.1847 -3.66158 1.62443 80.5574 -12.7146 0.905226 41.6629 -5.85341 -0.63365 0.0895238 5.96574 -90.3333 14.9418 0.0116333 -0.671845 3.2707 -0.0179424 -0.671705 -19.2632 0.213011 -0.637293 0.749503 0.213009 -0.637285 94.156 -12.9193 -104.502 22.897 -0.258237 25.0913 -59.3433 3.12608 -98.5293 -80.3129 -10.8004 3.34297 -87.3809 -31.5926 78.7603 -1.64877 6.22624 12.5787 41.5136 2.7494 -78.1727 72.5691 -10.3361 -11.8111 61.379 -4.06594 -3.33848 -19.5751 -1.76995 2.75508 
36.9355 9.21724 39.3698 5.9023 -11.744 0.702023 -170.392 -7.32321 97.8878 -21.4876 17.4794 2.5468 84.6974 17.2083 -1.85463 19.2892 -7.54506 6.44617 167.087 -10.2601 85.0583 -21.2313 -3.63033 1.63503 80.4757 -12.7137 0.646677 41.9984 -6.0365 -0.142895 0.0785985 5.93319 -90.385 15.0068 -0.035917 -0.768907 3.33567 -0.0697279 -0.766585 -19.1977 0.196817 -0.744168 0.814893 0.196823 -0.744163 94.0995 -12.3307 -104.951 23.0238 -0.242318 25.5671 -57.7774 3.14409 -98.5754 -80.2608 -9.60399 1.96762 -87.4878 -32.8728 78.8928 -0.703019 6.54182 12.1873 41.4618 3.22852 -78.0346 72.2626 -10.2246 -11.7743 61.4603 -3.25735 -1.80231 -20.1311 -1.9025 1.34608 
36.9402 9.22263 39.3548 5.75176 -11.794 0.610041 -170.5 -7.5309 97.7316 -21.2471 17.1551 2.57129 84.6465 17.3156 -1.66606 19.3945 -7.16903 5.77056 167.027 -10.193 84.9525 -21.373 -3.98037 1.60005 80.5299 -12.8259 0.352544 41.7975 -5.93004 -0.3917 0.100607 5.91628 -90.3939 15.0407 0.00309327 -0.792695 3.36951 -0.0318017 -0.792081 -19.1638 0.241183 -0.755134 0.848803 0.241177 -0.75514 94.0634 -12.2294 -105.102 23.0841 -0.411737 25.9354 -53.3975 2.8659 -98.4215 -82.194 -6.64433 -1.59763 -87.5214 -33.5819 79.0125 -0.286074 6.88672 12.4557 41.7092 3.00346 -78.209 72.2328 -10.1589 -11.6877 61.6806 -2.94921 -1.28403 -20.4631 -1.92907 0.978088 
36.9479 9.2277 39.3468 5.76124 -11.8019 0.609452 -170.473 -7.57645 97.7656 -21.2101 16.9809 2.54821 84.9631 17.2786 -2.31013 19.1774 -7.50073 6.2098 167.011 -10.1627 84.9282 -21.4746 -3.88393 1.62351 80.6341 -12.7812 0.637943 41.7398 -5.89404 -0.547825 0.0534666 5.86917 -90.4186 15.1345 -0.102782 -0.826252 3.46325 -0.139046 -0.820936 -19.0698 0.150282 -0.818958 0.94283 0.150282 -0.818955 93.3558 -12.558 -106.868 21.9543 0.103801 27.6421 -58.0994 2.6402 -98.2278 -76.8029 -8.83113 1.54377 -87.6742 -33.7953 78.7877 -0.0947353 6.93484 13.92 40.494 2.67864 -78.2714 71.9559 -10.4693 -12.3436 61.4741 -2.42071 -0.593297 -20.7427 -1.85012 0.456392 
36.9304 9.22337 39.3823 5.79627 -11.7222 0.652255 -170.374 -7.46575 97.8314 -21.2606 17.6068 2.48674 84.5543 17.3244 -1.49259 19.4922 -7.26245 6.09024 167.096 -10.1104 85.0816 -21.5202 -3.62991 1.64655 80.5709 -12.7431 0.521656 41.3272 -5.67468 -0.996261 0.0467606 5.89461 -90.4108 15.0835 -0.111959 -0.809271 3.41229 -0.147473 -0.803551 -19.1209 0.136423 -0.805508 0.891769 0.136423 -0.805517 93.5488 -12.4275 -106.412 22.2681 0.226377 28.027 -56.5291 3.11292 -98.5431 -80.8001 -10.0009 2.5713 -87.439 -32.992 79.0138 -0.812488 6.06144 14.8709 42.4059 3.84868 -78.3159 69.7752 -10.7882 -13.0529 62.447 -2.66113 -0.757912 -21.9896 -2.04304 0.966392 
36.9497 9.1559 39.4599 6.00138 -11.7828 0.97728 -170.24 -7.31555 98.1718 -21.5586 17.7368 2.55418 84.8104 17.3972 -1.63116 19.2221 -7.43235 6.12232 166.992 -10.4897 85.3099 -21.2291 -3.31471 1.98072 80.5512 -12.7067 0.70627 40.6592 -5.3657 -1.01229 0.0445189 5.91851 -90.4294 15.0356 -0.125505 -0.844833 3.36445 -0.162567 -0.838503 -19.1686 0.134196 -0.843498 0.844103 0.134198 -0.843507 94.2443 -12.0936 -104.671 23.1928 -0.193803 28.1325 -60.7581 2.19422 -97.8082 -76.5413 -10.3905 3.48611 -87.0751 -32.0535 79.4526 -2.88318 5.18507 16.6365 44.6394 3.1929 -79.337 71.4254 -10.5574 -11.9338 62.9211 -2.95153 -1.13659 -22.3192 -2.10904 1.39589 
36.9666 9.1407 39.559 6.09161 -11.8315 1.2648 -170.034 -7.18187 98.5228 -21.8251 17.4306 2.57996 85.3051 17.3421 -2.39215 18.9963 -7.75699 6.53173 167.102 -10.655 85.7115 -21.1212 -3.17614 2.14604 79.9209 -12.5496 0.0946553 41.2141 -5.61699 -1.08241 0.0462763 5.95495 -90.4329 14.9627 -0.123535 -0.852301 3.2915 -0.16093 -0.846037 -19.2414 0.138311 -0.850023 0.771212 0.138307 -0.85003 93.2473 -13.7645 -106.524 22.2974 -1.14281 32.4483 -56.7389 2.72748 -98.2401 -82.5794 -10.8433 3.33204 -86.9062 -31.6537 79.6698 -5.6098 8.11619 20.3925 47.7307 2.16784 -79.0543 69.9235 -9.98413 -11.3076 63.4611 -3.42864 -2.11841 -22.4834 -1.9202 1.97549 
36.8446 9.30087 39.62 5.74134 -11.2616 1.09385 -170.126 -6.86152 98.315 -21.3293 16.4514 2.42545 85.9869 17.5452 -3.30086 18.5635 -8.40437 7.3547 167.468 -9.57248 85.9611 -21.8052 -2.55849 2.00735 79.9975 -12.3549 0.472166 41.2481 -5.62338 -1.22008 0.0952902 5.89947 -90.4285 15.074 -0.0247759 -0.858269 3.40282 -0.0625281 -0.856336 -19.1302 0.234292 -0.826033 0.88246 0.234301 -0.826027 93.6862 -13.0308 -105.719 28.7853 -5.12732 35.9141 -65.3969 -1.97224 -95.5661 -76.289 -13.2394 6.78017 -87.1303 -32.6755 79.5061 -9.06272 11.0694 26.2564 58.2134 4.85823 -77.0604 68.6429 -8.53327 -8.23701 62.4618 -3.8483 -2.71678 -21.8597 -2.00445 2.61916 
36.7567 9.28169 39.6487 5.87293 -11.184 1.11371 -170.057 -6.84533 98.3864 -21.1822 16.3478 2.37774 86.1176 17.6619 -3.37834 18.598 -8.34379 7.27149 167.545 -9.55336 86.0837 -21.7729 -2.47017 2.04543 79.8697 -12.2345 0.383229 41.4486 -5.72381 -1.10624 0.117955 5.95952 -90.392 14.9543 0.0386776 -0.793869 3.28315 0.00370297 -0.794799 -19.2502 0.275469 -0.745558 0.762412 0.275471 -0.745541 94.1937 -13.9264 -103.928 33.3594 -7.19145 38.4623 -66.7712 -7.32187 -93.8783 -80.1435 -15.0404 7.70709 -86.8313 -34.542 80.501 -10.8096 12.0701 29.6456 66.355 7.33149 -75.9665 72.8198 -5.53088 -2.16551 61.7452 -4.70839 -4.10253 -21.3682 -2.01912 3.82571 
36.9183 9.28154 39.6189 5.71153 -11.4061 1.15643 -170.118 -7.18109 98.2667 -21.1644 16.2581 2.42136 86.2334 17.8187 -3.18755 18.3254 -9.34985 8.99654 167.203 -9.55394 85.7246 -22.0588 -3.28503 2.13486 79.6806 -12.225 0.082432 41.556 -5.81073 -0.539125 0.15811 5.9486 -90.4054 14.9764 0.111367 -0.83174 3.30517 0.074654 -0.835836 -19.2282 0.356177 -0.759827 0.784481 0.356179 -0.759816 94.416 -13.9627 -103.311 37.0648 -7.80584 39.969 -63.535 -13.4706 -91.6586 -83.9124 -16.6368 8.69702 -86.3367 -34.4262 81.3772 -16.1395 13.8223 29.6015 68.5955 10.6897 -74.4339 74.1629 -4.69993 -0.36415 61.6403 -4.56889 -3.82907 -21.5495 -2.0618 3.61827 
